<?xml version="1.0" encoding="utf-8"?>
<!-- Generator: Adobe Illustrator 21.0.0, SVG Export Plug-In . SVG Version: 6.00 Build 0)  -->
<svg version="1.1" id="Layer_1" xmlns="http://www.w3.org/2000/svg" xmlns:xlink="http://www.w3.org/1999/xlink" x="0px" y="0px"
	 width="40px" height="40px" viewBox="0 0 40 40" style="enable-background:new 0 0 40 40;" xml:space="preserve">
<style type="text/css">
	.st0{fill:#D44B27;}
	.st1{fill:#FFFFFF;}
</style>
<g>
	<circle class="st0" cx="20" cy="20" r="20"/>
</g>
<g>
	<g>
		<path d="M24.1,26.8h-8.2L14.6,31H8.5l8.4-24h6.2l8.4,24h-6.1L24.1,26.8z M22.6,22.1l-2.6-8l-2.6,8H22.6z"/>
	</g>
</g>
<g>
	<path class="st1" d="M14,9v4.6c0,0.3,0,0.5,0,0.7s-0.1,0.4-0.1,0.6c-0.1,0.2-0.2,0.4-0.4,0.6c-0.2,0.2-0.4,0.3-0.6,0.5
		c-0.2,0.1-0.5,0.2-0.8,0.3s-0.6,0.1-1,0.1c-0.4,0-0.7,0-1.1-0.1c-0.3-0.1-0.6-0.2-0.8-0.4c-0.2-0.2-0.4-0.4-0.6-0.6
		c-0.2-0.2-0.3-0.5-0.3-0.8h2c0.1,0.3,0.4,0.5,0.8,0.5c0.4,0,0.7-0.1,0.8-0.3c0.2-0.2,0.3-0.5,0.3-0.9v-0.5
		c-0.1,0.1-0.3,0.2-0.4,0.3c-0.1,0.1-0.2,0.1-0.4,0.2c-0.1,0.1-0.3,0.1-0.4,0.1c-0.1,0-0.3,0-0.4,0c-0.4,0-0.7-0.1-1-0.2
		c-0.3-0.1-0.6-0.3-0.8-0.5s-0.4-0.5-0.5-0.8s-0.2-0.6-0.2-1c0-0.4,0.1-0.7,0.2-1.1s0.3-0.6,0.5-0.9c0.2-0.2,0.5-0.4,0.8-0.6
		c0.3-0.1,0.6-0.2,1-0.2c0.6,0,1.1,0.2,1.5,0.7V9H14z M10,11.5c0,0.2,0,0.3,0.1,0.5s0.1,0.3,0.2,0.4s0.2,0.2,0.4,0.2
		s0.3,0.1,0.5,0.1c0.2,0,0.3,0,0.4-0.1c0.1-0.1,0.3-0.1,0.4-0.2c0.1-0.1,0.2-0.2,0.2-0.4c0.1-0.1,0.1-0.3,0.1-0.4
		c0-0.2,0-0.3-0.1-0.4c-0.1-0.1-0.1-0.3-0.2-0.4c-0.1-0.1-0.2-0.2-0.4-0.2c-0.1-0.1-0.3-0.1-0.4-0.1c-0.2,0-0.3,0-0.4,0.1
		c-0.1,0.1-0.3,0.1-0.4,0.2c-0.1,0.1-0.2,0.2-0.2,0.4C10.1,11.2,10,11.3,10,11.5z"/>
</g>
<g>
	<path class="st1" d="M16.4,6v8h-1.8V6H16.4z"/>
	<path class="st1" d="M19.1,9v2.8c0,0.6,0.3,0.9,0.9,0.9c0.6,0,0.9-0.3,0.9-0.9V9h1.8v3.1c0,0.7-0.2,1.2-0.7,1.5
		c-0.4,0.3-1.1,0.5-2,0.5c-0.9,0-1.5-0.2-2-0.5c-0.4-0.3-0.7-0.8-0.7-1.5V9H19.1z"/>
	<path class="st1" d="M25.4,6v4.9L27.2,9h2.4l-2.5,2.3l2.6,2.7h-2.5l-1.9-2v2h-1.8V6H25.4z"/>
</g>
<g>
	<path class="st1" d="M14.6,16h1.8v3.7c0.2-0.3,0.5-0.5,0.7-0.6s0.5-0.1,0.9-0.1c0.6,0,1.1,0.2,1.4,0.5c0.3,0.3,0.5,0.8,0.5,1.4V24
		h-1.8v-2.5c0-0.3,0-0.5-0.1-0.6c0-0.2-0.1-0.3-0.2-0.4c-0.2-0.1-0.3-0.2-0.6-0.2c-0.3,0-0.5,0.1-0.7,0.3c-0.2,0.2-0.2,0.4-0.2,0.8
		V24h-1.8V16z"/>
	<path class="st1" d="M24.6,19h1.8v5h-1.8v-0.6c-0.4,0.5-0.9,0.7-1.5,0.7c-0.4,0-0.7-0.1-1-0.2c-0.3-0.1-0.6-0.3-0.8-0.6
		c-0.2-0.2-0.4-0.5-0.5-0.8s-0.2-0.7-0.2-1.1c0-0.4,0.1-0.7,0.2-1s0.3-0.6,0.5-0.8c0.2-0.2,0.5-0.4,0.8-0.6c0.3-0.1,0.6-0.2,1-0.2
		c0.6,0,1.1,0.2,1.5,0.6V19z M22.4,21.5c0,0.2,0,0.3,0.1,0.5c0.1,0.1,0.1,0.3,0.2,0.4c0.1,0.1,0.2,0.2,0.4,0.2s0.3,0.1,0.5,0.1
		c0.2,0,0.3,0,0.4-0.1c0.1-0.1,0.3-0.1,0.4-0.2c0.1-0.1,0.2-0.2,0.2-0.4s0.1-0.3,0.1-0.4c0-0.2,0-0.3-0.1-0.4
		c-0.1-0.1-0.1-0.3-0.2-0.4c-0.1-0.1-0.2-0.2-0.4-0.2c-0.1-0.1-0.3-0.1-0.4-0.1c-0.2,0-0.3,0-0.5,0.1s-0.3,0.1-0.4,0.2
		c-0.1,0.1-0.2,0.2-0.2,0.4C22.5,21.2,22.4,21.3,22.4,21.5z"/>
	<path class="st1" d="M27.4,19h1.8v0.6c0.2-0.3,0.5-0.5,0.7-0.6c0.2-0.1,0.5-0.1,0.9-0.1c0.3,0,0.6,0.1,0.9,0.2
		c0.2,0.1,0.5,0.3,0.6,0.5c0.1,0.2,0.2,0.4,0.3,0.6c0.1,0.2,0.1,0.4,0.1,0.7V24h-1.8v-2.5c0-0.2,0-0.4-0.1-0.6
		c0-0.2-0.1-0.3-0.2-0.4c-0.1-0.1-0.2-0.1-0.3-0.2c-0.1,0-0.2,0-0.3,0c-0.3,0-0.5,0.1-0.7,0.3c-0.2,0.2-0.2,0.4-0.2,0.8V24h-1.8V19z
		"/>
</g>
<g>
	<path class="st1" d="M16.4,26v4.9l1.8-1.8h2.4l-2.5,2.3l2.6,2.7h-2.5l-1.9-2v2h-1.8v-8H16.4z"/>
	<path class="st1" d="M20.6,31.5c0-0.4,0.1-0.7,0.2-1c0.1-0.3,0.4-0.6,0.6-0.8c0.3-0.2,0.6-0.4,0.9-0.6c0.4-0.1,0.8-0.2,1.2-0.2
		c0.4,0,0.8,0.1,1.2,0.2s0.7,0.3,0.9,0.6s0.5,0.5,0.6,0.8s0.2,0.7,0.2,1.1c0,0.4-0.1,0.8-0.2,1.1c-0.2,0.3-0.4,0.6-0.6,0.8
		c-0.3,0.2-0.6,0.4-1,0.5s-0.8,0.2-1.2,0.2c-0.4,0-0.8-0.1-1.2-0.2s-0.7-0.3-0.9-0.6c-0.3-0.2-0.5-0.5-0.6-0.9
		C20.7,32.2,20.6,31.9,20.6,31.5z M22.4,31.5c0,0.2,0,0.3,0.1,0.5s0.1,0.3,0.2,0.4s0.2,0.2,0.4,0.2c0.1,0.1,0.3,0.1,0.4,0.1
		c0.2,0,0.3,0,0.4-0.1s0.3-0.1,0.4-0.2c0.1-0.1,0.2-0.2,0.2-0.4c0.1-0.1,0.1-0.3,0.1-0.5c0-0.2,0-0.3-0.1-0.4
		c-0.1-0.1-0.1-0.3-0.2-0.4c-0.1-0.1-0.2-0.2-0.4-0.2s-0.3-0.1-0.4-0.1c-0.2,0-0.3,0-0.4,0.1c-0.1,0.1-0.3,0.1-0.4,0.2
		c-0.1,0.1-0.2,0.2-0.2,0.4C22.5,31.2,22.4,31.3,22.4,31.5z"/>
</g>
</svg>
