<svg width="18" height="18" viewBox="0 0 18 18" fill="none" xmlns="http://www.w3.org/2000/svg">
<path d="M9 18C13.9706 18 18 13.9706 18 9C18 4.02944 13.9706 0 9 0C4.02944 0 0 4.02944 0 9C0 13.9706 4.02944 18 9 18Z" fill="url(#paint0_linear_53_1707)"/>
<path d="M13.4251 5.025L11.7751 13.2C11.7751 13.2 11.5501 13.8 10.9501 13.575L7.2001 10.725L5.8501 10.125L3.6001 9.3C3.6001 9.3 3.2251 9.15 3.2251 8.925C3.2251 8.7 3.6001 8.55 3.6001 8.55L12.6001 5.1C12.6001 5.025 13.4251 4.575 13.4251 5.025Z" fill="white"/>
<path d="M6.82529 13.2C6.82529 13.2 6.82529 13.2 6.67529 12.75C6.52529 12.375 5.92529 10.125 5.92529 10.125L11.4753 6.675C11.4753 6.675 11.8503 6.525 11.8503 6.675C11.8503 6.675 12.0003 6.675 11.7003 6.825C11.4753 7.05 7.27529 10.8 7.27529 10.8" fill="#C7DFEB"/>
<path d="M8.6252 11.775L7.05019 13.2C7.05019 13.2 6.9002 13.35 6.8252 13.2L7.27519 10.725" fill="#A8C9DE"/>
<defs>
<linearGradient id="paint0_linear_53_1707" x1="9" y1="0" x2="9" y2="17.9344" gradientUnits="userSpaceOnUse">
<stop stop-color="#2EBFE8"/>
<stop offset="1" stop-color="#13A9DC"/>
</linearGradient>
</defs>
</svg>
