<svg width="18" height="18" viewBox="0 0 18 18" fill="none" xmlns="http://www.w3.org/2000/svg">
<path d="M15.15 2.625C13.35 0.825 11.175 0 8.85 0C3.9 0 0 3.975 0 8.925C0 10.5 0.375 12.075 1.2 13.425L0 18L4.8 16.8C6.075 17.55 7.575 17.85 9.075 17.85C13.95 17.85 17.925 13.875 18 8.925C17.775 6.675 16.8 4.35 15.15 2.625Z" fill="url(#paint0_linear_53_1702)"/>
<path d="M6.6751 5.17499C6.5251 4.94999 6.3001 4.79999 6.0751 4.79999C5.8501 4.79999 5.8501 4.79999 5.7001 4.79999C5.5501 4.79999 5.4001 4.94999 5.1001 5.17499C4.8751 5.32499 4.3501 5.92499 4.3501 6.97499C4.3501 8.02499 5.1001 9.14999 5.3251 9.29999C5.4751 9.44999 6.9001 11.85 9.1501 12.675C11.0251 13.425 11.4001 13.275 11.7751 13.275C12.1501 13.275 13.0501 12.675 13.2001 12.225C13.3501 11.625 13.3501 11.25 13.3501 11.175C13.2001 11.025 13.1251 10.95 12.9751 10.8C12.7501 10.65 11.7001 10.2 11.4001 10.05C11.1751 10.05 10.9501 10.05 10.9501 10.2C10.7251 10.425 10.3501 10.95 10.2001 11.025C10.0501 11.175 9.9751 11.25 9.7501 11.175C9.5251 11.025 8.7751 10.8 7.9501 10.125C7.2001 9.52499 6.9001 8.77499 6.7501 8.54999C6.6001 8.32499 6.7501 8.17499 6.9001 8.09999C7.0501 8.09999 7.1251 7.94999 7.2751 7.72499C7.4251 7.49999 7.2751 7.49999 7.4251 7.34999C7.5751 7.19999 7.4251 6.97499 7.4251 6.97499C7.2751 6.74999 6.8251 5.69999 6.6751 5.17499Z" fill="white"/>
<defs>
<linearGradient id="paint0_linear_53_1702" x1="9" y1="0.039225" x2="9" y2="18.0816" gradientUnits="userSpaceOnUse">
<stop stop-color="#72BF44"/>
<stop offset="1" stop-color="#03AA4B"/>
</linearGradient>
</defs>
</svg>
