<?xml version="1.0" encoding="utf-8"?>
<!-- Generator: Adobe Illustrator 21.0.0, SVG Export Plug-In . SVG Version: 6.00 Build 0)  -->
<svg version="1.1" id="Layer_1" xmlns="http://www.w3.org/2000/svg" xmlns:xlink="http://www.w3.org/1999/xlink" x="0px" y="0px"
	 width="23px" height="23px" viewBox="0 0 23 23" style="enable-background:new 0 0 23 23;" xml:space="preserve">
<style type="text/css">
	.st0{fill:none;stroke:#000000;stroke-width:2;}
</style>
<path class="st0" d="M8,2h7c1.1,0,2,0.9,2,2v15c0,1.1-0.9,2-2,2H8c-1.1,0-2-0.9-2-2V4C6,2.9,6.9,2,8,2z"/>
<path d="M10,2h3c0.6,0,1,0.4,1,1l0,0c0,0.6-0.4,1-1,1h-3C9.4,4,9,3.6,9,3l0,0C9,2.4,9.4,2,10,2z"/>
</svg>
