<svg width="24" height="24" viewBox="0 0 24 24" fill="none" xmlns="http://www.w3.org/2000/svg">
<path d="M12 24C18.6274 24 24 18.6274 24 12C24 5.37258 18.6274 0 12 0C5.37258 0 0 5.37258 0 12C0 18.6274 5.37258 24 12 24Z" fill="url(#paint0_linear_10_139)"/>
<path d="M17.9 6.7L15.7 17.6C15.7 17.6 15.4 18.4 14.6 18.1L9.60005 14.3L7.80005 13.5L4.80005 12.4C4.80005 12.4 4.30005 12.2 4.30005 11.9C4.30005 11.6 4.80005 11.4 4.80005 11.4L16.8 6.8C16.8 6.7 17.9 6.1 17.9 6.7Z" fill="white"/>
<path d="M9.10015 17.6C9.10015 17.6 9.10015 17.6 8.90015 17C8.70015 16.5 7.90015 13.5 7.90015 13.5L15.3001 8.9C15.3001 8.9 15.8001 8.7 15.8001 8.9C15.8001 8.9 16.0001 8.9 15.6001 9.1C15.3001 9.4 9.70015 14.4 9.70015 14.4" fill="#C7DFEB"/>
<path d="M11.5001 15.7L9.4001 17.6C9.4001 17.6 9.2001 17.8 9.1001 17.6L9.7001 14.3" fill="#A8C9DE"/>
<defs>
<linearGradient id="paint0_linear_10_139" x1="12" y1="0" x2="12" y2="23.9125" gradientUnits="userSpaceOnUse">
<stop stop-color="#2EBFE8"/>
<stop offset="1" stop-color="#13A9DC"/>
</linearGradient>
</defs>
</svg>
