<svg width="24" height="24" viewBox="0 0 24 24" fill="none" xmlns="http://www.w3.org/2000/svg">
<path d="M20.2 3.5C17.8 1.1 14.9 0 11.8 0C5.2 0 0 5.3 0 11.9C0 14 0.5 16.1 1.6 17.9L0 24L6.4 22.4C8.1 23.4 10.1 23.8 12.1 23.8C18.6 23.8 23.9 18.5 24 11.9C23.7 8.9 22.4 5.8 20.2 3.5Z" fill="url(#paint0_linear_10_134)"/>
<path d="M8.90005 6.9C8.70005 6.6 8.40005 6.4 8.10005 6.4C7.80005 6.4 7.80005 6.4 7.60005 6.4C7.40005 6.4 7.20005 6.6 6.80005 6.9C6.50005 7.1 5.80005 7.9 5.80005 9.3C5.80005 10.7 6.80005 12.2 7.10005 12.4C7.30005 12.6 9.20005 15.8 12.2 16.9C14.7 17.9 15.2 17.7 15.7 17.7C16.2 17.7 17.4 16.9 17.6 16.3C17.8 15.5 17.8 15 17.8 14.9C17.6 14.7 17.5 14.6 17.3 14.4C17 14.2 15.6 13.6 15.2 13.4C14.9 13.4 14.6 13.4 14.6 13.6C14.3 13.9 13.8 14.6 13.6 14.7C13.4 14.9 13.3 15 13 14.9C12.7 14.7 11.7 14.4 10.6 13.5C9.60005 12.7 9.20005 11.7 9.00005 11.4C8.80005 11.1 9.00005 10.9 9.20005 10.8C9.40005 10.8 9.50005 10.6 9.70005 10.3C9.90005 10 9.70005 10 9.90005 9.8C10.1 9.6 9.90005 9.3 9.90005 9.3C9.70005 9 9.10005 7.6 8.90005 6.9Z" fill="white"/>
<defs>
<linearGradient id="paint0_linear_10_134" x1="12" y1="0.0523" x2="12" y2="24.1088" gradientUnits="userSpaceOnUse">
<stop stop-color="#72BF44"/>
<stop offset="1" stop-color="#03AA4B"/>
</linearGradient>
</defs>
</svg>
