<?xml version="1.0" encoding="utf-8"?>
<!-- Generator: Adobe Illustrator 21.0.0, SVG Export Plug-In . SVG Version: 6.00 Build 0)  -->
<svg version="1.1" id="Layer_1" xmlns="http://www.w3.org/2000/svg" xmlns:xlink="http://www.w3.org/1999/xlink" x="0px" y="0px"
	 width="50px" height="50px" viewBox="0 0 50 50" style="enable-background:new 0 0 50 50;" xml:space="preserve">
<style type="text/css">
	.st0{fill:#D44B27;}
	.st1{fill:#FFFFFF;}
</style>
<g>
	<g>
		<circle class="st0" cx="25" cy="25" r="25"/>
	</g>
	<g>
		<g>
			<path d="M30.1,33.5H19.9l-1.6,5.2h-7.6l10.5-30h7.8l10.5,30h-7.6L30.1,33.5z M28.2,27.6l-3.2-10l-3.2,10H28.2z"/>
		</g>
	</g>
	<g>
		<path class="st1" d="M17.4,11.3v5.8c0,0.3,0,0.7-0.1,0.9s-0.1,0.5-0.2,0.7c-0.1,0.3-0.2,0.5-0.5,0.7c-0.2,0.2-0.5,0.4-0.7,0.6
			c-0.3,0.2-0.6,0.3-1,0.4s-0.8,0.1-1.2,0.1c-0.5,0-0.9-0.1-1.3-0.2c-0.4-0.1-0.8-0.3-1.1-0.5c-0.3-0.2-0.6-0.5-0.7-0.8
			c-0.2-0.3-0.3-0.6-0.4-0.9h2.5c0.2,0.4,0.5,0.6,1,0.6c0.5,0,0.8-0.1,1.1-0.4c0.2-0.3,0.4-0.6,0.4-1.1v-0.6
			c-0.2,0.2-0.3,0.3-0.5,0.4c-0.1,0.1-0.3,0.2-0.5,0.2c-0.2,0.1-0.3,0.1-0.5,0.1c-0.2,0-0.4,0-0.6,0c-0.4,0-0.9-0.1-1.2-0.2
			c-0.4-0.2-0.7-0.4-1-0.6s-0.5-0.6-0.6-1s-0.2-0.8-0.2-1.3c0-0.5,0.1-0.9,0.2-1.3s0.4-0.8,0.7-1.1c0.3-0.3,0.6-0.5,1-0.7
			c0.4-0.2,0.8-0.3,1.3-0.3c0.7,0,1.4,0.3,1.9,0.8v-0.7H17.4z M12.5,14.4c0,0.2,0,0.4,0.1,0.6s0.2,0.3,0.3,0.5s0.3,0.2,0.4,0.3
			s0.4,0.1,0.6,0.1c0.2,0,0.4,0,0.6-0.1c0.2-0.1,0.3-0.2,0.4-0.3c0.1-0.1,0.2-0.3,0.3-0.5c0.1-0.2,0.1-0.4,0.1-0.6
			c0-0.2,0-0.4-0.1-0.6c-0.1-0.2-0.2-0.3-0.3-0.4c-0.1-0.1-0.3-0.2-0.5-0.3C14.3,13,14.1,13,13.9,13c-0.2,0-0.4,0-0.5,0.1
			c-0.2,0.1-0.3,0.2-0.4,0.3c-0.1,0.1-0.2,0.3-0.3,0.4C12.6,14,12.5,14.2,12.5,14.4z"/>
	</g>
	<g>
		<path class="st1" d="M20.4,7.4v10.1h-2.2V7.4H20.4z"/>
		<path class="st1" d="M23.9,11.3v3.5c0,0.8,0.4,1.2,1.1,1.2c0.7,0,1.1-0.4,1.1-1.2v-3.5h2.2v3.9c0,0.8-0.3,1.5-0.8,1.9
			c-0.6,0.4-1.4,0.6-2.5,0.6c-1.1,0-1.9-0.2-2.5-0.6c-0.6-0.4-0.8-1-0.8-1.9v-3.9H23.9z"/>
		<path class="st1" d="M31.8,7.4v6.1l2.3-2.2h3l-3.1,2.9l3.3,3.3h-3.1L31.8,15v2.5h-2.2V7.4H31.8z"/>
	</g>
	<g>
		<path class="st1" d="M18.3,19.9h2.2v4.6c0.3-0.4,0.6-0.6,0.9-0.7s0.7-0.2,1.1-0.2c0.8,0,1.4,0.2,1.8,0.6c0.4,0.4,0.6,1,0.6,1.7V30
			h-2.2v-3.1c0-0.3,0-0.6-0.1-0.8c0-0.2-0.1-0.3-0.2-0.4c-0.2-0.2-0.4-0.3-0.7-0.3c-0.4,0-0.7,0.1-0.9,0.3c-0.2,0.2-0.3,0.5-0.3,1
			V30h-2.2V19.9z"/>
		<path class="st1" d="M30.8,23.8H33V30h-2.2v-0.7c-0.5,0.6-1.1,0.9-1.9,0.9c-0.5,0-0.9-0.1-1.2-0.2c-0.4-0.2-0.7-0.4-1-0.7
			c-0.3-0.3-0.5-0.7-0.7-1.1s-0.2-0.8-0.2-1.3c0-0.4,0.1-0.9,0.2-1.3s0.4-0.7,0.6-1c0.3-0.3,0.6-0.5,1-0.7c0.4-0.2,0.8-0.3,1.3-0.3
			c0.8,0,1.4,0.3,1.9,0.8V23.8z M28,26.9c0,0.2,0,0.4,0.1,0.6c0.1,0.2,0.2,0.3,0.3,0.5c0.1,0.1,0.3,0.2,0.4,0.3s0.4,0.1,0.6,0.1
			c0.2,0,0.4,0,0.6-0.1c0.2-0.1,0.3-0.2,0.4-0.3c0.1-0.1,0.2-0.3,0.3-0.4s0.1-0.4,0.1-0.5c0-0.2,0-0.4-0.1-0.6
			c-0.1-0.2-0.2-0.3-0.3-0.5c-0.1-0.1-0.3-0.2-0.4-0.3c-0.2-0.1-0.4-0.1-0.6-0.1c-0.2,0-0.4,0-0.6,0.1s-0.3,0.2-0.4,0.3
			c-0.1,0.1-0.2,0.3-0.3,0.4C28.1,26.5,28,26.7,28,26.9z"/>
		<path class="st1" d="M34.3,23.8h2.2v0.8c0.3-0.4,0.6-0.6,0.9-0.7c0.3-0.1,0.7-0.2,1.1-0.2c0.4,0,0.8,0.1,1.1,0.2
			c0.3,0.1,0.6,0.3,0.8,0.6c0.2,0.2,0.3,0.4,0.4,0.7c0.1,0.3,0.1,0.6,0.1,0.9V30h-2.2v-3.1c0-0.3,0-0.6-0.1-0.7
			c0-0.2-0.1-0.3-0.2-0.5c-0.1-0.1-0.2-0.2-0.3-0.2c-0.1,0-0.3-0.1-0.4-0.1c-0.4,0-0.7,0.1-0.9,0.3c-0.2,0.2-0.3,0.5-0.3,1V30h-2.2
			V23.8z"/>
	</g>
	<g>
		<path class="st1" d="M20.4,32.4v6.1l2.3-2.2h3l-3.1,2.9l3.3,3.3h-3.1L20.4,40v2.5h-2.2V32.4H20.4z"/>
		<path class="st1" d="M25.7,39.3c0-0.5,0.1-0.9,0.3-1.3c0.2-0.4,0.4-0.7,0.8-1c0.3-0.3,0.7-0.5,1.2-0.7c0.5-0.2,1-0.3,1.5-0.3
			c0.5,0,1,0.1,1.5,0.2s0.9,0.4,1.2,0.7s0.6,0.6,0.8,1.1s0.3,0.9,0.3,1.4c0,0.5-0.1,0.9-0.3,1.4c-0.2,0.4-0.4,0.8-0.8,1.1
			c-0.3,0.3-0.7,0.5-1.2,0.7s-1,0.2-1.5,0.2c-0.5,0-1-0.1-1.5-0.2s-0.8-0.4-1.2-0.7c-0.3-0.3-0.6-0.7-0.8-1.1
			C25.8,40.3,25.7,39.8,25.7,39.3z M28,39.4c0,0.2,0,0.4,0.1,0.6s0.2,0.3,0.3,0.5s0.3,0.2,0.4,0.3c0.2,0.1,0.4,0.1,0.5,0.1
			c0.2,0,0.4,0,0.6-0.1s0.3-0.2,0.4-0.3c0.1-0.1,0.2-0.3,0.3-0.5c0.1-0.2,0.1-0.4,0.1-0.6c0-0.2,0-0.4-0.1-0.6
			c-0.1-0.2-0.2-0.3-0.3-0.5c-0.1-0.1-0.3-0.2-0.4-0.3S29.6,38,29.5,38c-0.2,0-0.4,0-0.5,0.1c-0.2,0.1-0.3,0.2-0.4,0.3
			c-0.1,0.1-0.2,0.3-0.3,0.4C28.1,39,28,39.2,28,39.4z"/>
	</g>
</g>
</svg>
