<svg width="985" height="128" viewBox="0 0 985 128" fill="none" xmlns="http://www.w3.org/2000/svg">
<rect y="78" width="985" height="24" rx="12" fill="#EDEDED"/>
<rect y="104" width="985" height="24" rx="12" fill="#EDEDED"/>
<rect width="985" height="24" rx="12" fill="#EDEDED"/>
<rect y="26" width="985" height="24" rx="12" fill="#EDEDED"/>
<rect y="52" width="985" height="24" rx="12" fill="#EDEDED"/>
<rect width="259" height="24" rx="12" fill="#2C2C2C"/>
<rect x="363" y="52" width="259" height="24" rx="12" fill="#2C2C2C"/>
<rect x="543" y="78" width="259" height="24" rx="12" fill="#2C2C2C"/>
<rect x="726" y="104" width="259" height="24" rx="12" fill="#2C2C2C"/>
<rect x="181" y="26" width="259" height="24" rx="12" fill="#2C2C2C"/>
<path d="M195.353 33.329C195.916 33.329 196.384 33.3767 196.757 33.472C197.13 33.5587 197.459 33.7363 197.745 34.005C198.204 34.4383 198.434 35.0103 198.434 35.721C198.434 35.8943 198.417 36.0677 198.382 36.241C198.347 36.4057 198.278 36.5747 198.174 36.748C198.079 36.9213 197.97 37.0557 197.849 37.151C197.728 37.2377 197.619 37.3027 197.524 37.346C197.602 37.3633 197.754 37.4153 197.979 37.502C198.204 37.5887 198.425 37.7447 198.642 37.97C198.876 38.2213 199.028 38.49 199.097 38.776C199.175 39.0533 199.214 39.3263 199.214 39.595C199.214 39.907 199.171 40.1887 199.084 40.44C198.997 40.6913 198.85 40.9297 198.642 41.155C198.469 41.337 198.274 41.4843 198.057 41.597C197.849 41.7097 197.632 41.7963 197.407 41.857C197.19 41.909 196.978 41.948 196.77 41.974C196.562 41.9913 196.376 42 196.211 42H194.04V33.329H195.353ZM195.366 37.06H195.769C195.934 37.06 196.116 37.0427 196.315 37.008C196.514 36.9647 196.692 36.8693 196.848 36.722C196.995 36.5747 197.086 36.41 197.121 36.228C197.164 36.046 197.186 35.8813 197.186 35.734C197.186 35.604 197.169 35.4653 197.134 35.318C197.099 35.1707 197.013 35.032 196.874 34.902C196.727 34.7547 196.562 34.6637 196.38 34.629C196.198 34.5943 196.012 34.577 195.821 34.577H195.366V37.06ZM195.366 40.752H196.172C196.363 40.752 196.584 40.7303 196.835 40.687C197.095 40.6437 197.312 40.5527 197.485 40.414C197.615 40.31 197.719 40.1757 197.797 40.011C197.875 39.8377 197.914 39.6513 197.914 39.452C197.914 39.0793 197.797 38.776 197.563 38.542C197.381 38.3687 197.164 38.2603 196.913 38.217C196.67 38.1737 196.432 38.152 196.198 38.152H195.366V40.752ZM205.407 34.577H201.949V36.774H205.303V38.022H201.949V40.752H205.407V42H200.623V33.329H205.407V34.577ZM200.935 31.665C200.935 31.4397 201.013 31.249 201.169 31.093C201.325 30.937 201.515 30.859 201.741 30.859C201.966 30.859 202.157 30.937 202.313 31.093C202.469 31.249 202.547 31.4397 202.547 31.665C202.547 31.8903 202.469 32.081 202.313 32.237C202.157 32.393 201.966 32.471 201.741 32.471C201.515 32.471 201.325 32.393 201.169 32.237C201.013 32.081 200.935 31.8903 200.935 31.665ZM203.483 31.665C203.483 31.4397 203.561 31.249 203.717 31.093C203.873 30.937 204.063 30.859 204.289 30.859C204.514 30.859 204.705 30.937 204.861 31.093C205.017 31.249 205.095 31.4397 205.095 31.665C205.095 31.8903 205.017 32.081 204.861 32.237C204.705 32.393 204.514 32.471 204.289 32.471C204.063 32.471 203.873 32.393 203.717 32.237C203.561 32.081 203.483 31.8903 203.483 31.665ZM208.774 33.329C209.042 33.329 209.346 33.355 209.684 33.407C210.03 33.459 210.36 33.589 210.672 33.797C211.036 34.0397 211.304 34.3517 211.478 34.733C211.66 35.1143 211.751 35.5043 211.751 35.903C211.751 36.033 211.738 36.176 211.712 36.332C211.694 36.488 211.655 36.6483 211.595 36.813C211.534 36.9777 211.447 37.1467 211.335 37.32C211.231 37.4847 211.088 37.645 210.906 37.801C210.559 38.0957 210.199 38.282 209.827 38.36C209.454 38.438 209.107 38.477 208.787 38.477H208.189V42H206.863V33.329H208.774ZM208.189 37.255H208.787C209.359 37.255 209.783 37.1293 210.061 36.878C210.338 36.6267 210.477 36.2973 210.477 35.89C210.477 35.7687 210.459 35.63 210.425 35.474C210.39 35.318 210.312 35.175 210.191 35.045C210.069 34.9063 209.896 34.7893 209.671 34.694C209.445 34.5987 209.146 34.551 208.774 34.551H208.189V37.255ZM219.271 35.357C219.028 35.1403 218.79 34.967 218.556 34.837C218.331 34.707 218.118 34.6117 217.919 34.551C217.72 34.4817 217.533 34.4383 217.36 34.421C217.187 34.4037 217.039 34.395 216.918 34.395C216.45 34.395 216.021 34.4773 215.631 34.642C215.241 34.8067 214.907 35.0363 214.63 35.331C214.353 35.6257 214.136 35.9767 213.98 36.384C213.833 36.7827 213.759 37.2203 213.759 37.697C213.759 38.1563 213.837 38.5853 213.993 38.984C214.149 39.374 214.366 39.7163 214.643 40.011C214.929 40.3057 215.267 40.5353 215.657 40.7C216.047 40.8647 216.472 40.947 216.931 40.947C217.191 40.947 217.434 40.9167 217.659 40.856C217.893 40.7953 218.105 40.7173 218.296 40.622C218.495 40.5267 218.677 40.4227 218.842 40.31C219.007 40.1887 219.15 40.0673 219.271 39.946V41.519C218.829 41.779 218.396 41.9523 217.971 42.039C217.555 42.1257 217.195 42.169 216.892 42.169C216.502 42.169 216.142 42.13 215.813 42.052C215.492 41.974 215.206 41.8743 214.955 41.753C214.704 41.6317 214.483 41.5017 214.292 41.363C214.11 41.2243 213.954 41.0943 213.824 40.973C213.313 40.4963 212.953 39.985 212.745 39.439C212.537 38.893 212.433 38.3123 212.433 37.697C212.433 37.2983 212.472 36.93 212.55 36.592C212.628 36.254 212.728 35.9463 212.849 35.669C212.979 35.383 213.126 35.1273 213.291 34.902C213.464 34.6767 213.642 34.4773 213.824 34.304C214.275 33.8793 214.76 33.5847 215.28 33.42C215.8 33.2553 216.359 33.173 216.957 33.173C217.356 33.173 217.746 33.2163 218.127 33.303C218.508 33.3897 218.89 33.5543 219.271 33.797V35.357ZM223.055 34.577V42H221.729V34.577H219.74V33.329H225.044V34.577H223.055ZM227.277 36.787L230.631 33.329H232.373L228.46 37.255L232.399 42H230.631L227.537 38.152L227.277 38.412V42H225.951V33.329H227.277V36.787ZM238.683 39.907H234.978L234.029 42H232.599L236.915 32.822L241.023 42H239.593L238.683 39.907ZM238.15 38.659L236.863 35.721L235.524 38.659H238.15Z" fill="white"/>
<path d="M382.41 59.329V68H381.084V60.577H377.366V68H376.04V59.329H382.41ZM386.146 59.329C386.415 59.329 386.718 59.355 387.056 59.407C387.403 59.459 387.732 59.589 388.044 59.797C388.408 60.0397 388.677 60.3517 388.85 60.733C389.032 61.1143 389.123 61.5043 389.123 61.903C389.123 62.033 389.11 62.176 389.084 62.332C389.067 62.488 389.028 62.6483 388.967 62.813C388.906 62.9777 388.82 63.1467 388.707 63.32C388.603 63.4847 388.46 63.645 388.278 63.801C387.931 64.0957 387.572 64.282 387.199 64.36C386.826 64.438 386.48 64.477 386.159 64.477H385.561V68H384.235V59.329H386.146ZM385.561 63.255H386.159C386.731 63.255 387.156 63.1293 387.433 62.878C387.71 62.6267 387.849 62.2973 387.849 61.89C387.849 61.7687 387.832 61.63 387.797 61.474C387.762 61.318 387.684 61.175 387.563 61.045C387.442 60.9063 387.268 60.7893 387.043 60.694C386.818 60.5987 386.519 60.551 386.146 60.551H385.561V63.255ZM394.316 59.173C394.966 59.173 395.564 59.29 396.11 59.524C396.665 59.7493 397.142 60.0657 397.54 60.473C397.948 60.8717 398.264 61.3483 398.489 61.903C398.715 62.449 398.827 63.0383 398.827 63.671C398.827 64.3123 398.715 64.906 398.489 65.452C398.264 65.998 397.948 66.4747 397.54 66.882C397.142 67.2807 396.665 67.597 396.11 67.831C395.564 68.0563 394.966 68.169 394.316 68.169C393.666 68.169 393.064 68.0563 392.509 67.831C391.963 67.597 391.487 67.2807 391.079 66.882C390.681 66.4747 390.369 65.998 390.143 65.452C389.918 64.906 389.805 64.3123 389.805 63.671C389.805 63.0383 389.918 62.449 390.143 61.903C390.369 61.3483 390.681 60.8717 391.079 60.473C391.487 60.0657 391.963 59.7493 392.509 59.524C393.064 59.29 393.666 59.173 394.316 59.173ZM394.316 66.947C394.784 66.947 395.213 66.869 395.603 66.713C395.993 66.5483 396.327 66.323 396.604 66.037C396.89 65.7423 397.111 65.3957 397.267 64.997C397.423 64.5983 397.501 64.1563 397.501 63.671C397.501 63.1943 397.423 62.7567 397.267 62.358C397.111 61.9507 396.89 61.604 396.604 61.318C396.327 61.0233 395.993 60.798 395.603 60.642C395.213 60.4773 394.784 60.395 394.316 60.395C393.848 60.395 393.419 60.4773 393.029 60.642C392.639 60.798 392.301 61.0233 392.015 61.318C391.738 61.604 391.521 61.9507 391.365 62.358C391.209 62.7567 391.131 63.1943 391.131 63.671C391.131 64.1563 391.209 64.5983 391.365 64.997C391.521 65.3957 391.738 65.7423 392.015 66.037C392.301 66.323 392.639 66.5483 393.029 66.713C393.419 66.869 393.848 66.947 394.316 66.947ZM400.232 59.329H404.574V60.577H401.558V68H400.232V59.329ZM407.443 59.329C407.712 59.329 408.015 59.355 408.353 59.407C408.7 59.459 409.029 59.589 409.341 59.797C409.705 60.0397 409.974 60.3517 410.147 60.733C410.329 61.1143 410.42 61.5043 410.42 61.903C410.42 62.033 410.407 62.176 410.381 62.332C410.364 62.488 410.325 62.6483 410.264 62.813C410.204 62.9777 410.117 63.1467 410.004 63.32C409.9 63.4847 409.757 63.645 409.575 63.801C409.229 64.0957 408.869 64.282 408.496 64.36C408.124 64.438 407.777 64.477 407.456 64.477H406.858V68H405.532V59.329H407.443ZM406.858 63.255H407.456C408.028 63.255 408.453 63.1293 408.73 62.878C409.008 62.6267 409.146 62.2973 409.146 61.89C409.146 61.7687 409.129 61.63 409.094 61.474C409.06 61.318 408.982 61.175 408.86 61.045C408.739 60.9063 408.566 60.7893 408.34 60.694C408.115 60.5987 407.816 60.551 407.443 60.551H406.858V63.255ZM416.221 65.907H412.516L411.567 68H410.137L414.453 58.822L418.561 68H417.131L416.221 65.907ZM415.688 64.659L414.401 61.721L413.062 64.659H415.688ZM419.136 68L420.956 58.679L423.972 65.413L427.014 58.679L428.652 68H427.3L426.416 62.774L423.894 68.403L421.398 62.761L420.488 68H419.136ZM429.946 68L431.766 58.679L434.782 65.413L437.824 58.679L439.462 68H438.11L437.226 62.774L434.704 68.403L432.208 62.761L431.298 68H429.946ZM446.867 62.163L441.017 68.39V59.329H442.343V65.192L448.193 58.965V68H446.867V62.163ZM451.923 59.329C452.191 59.329 452.495 59.355 452.833 59.407C453.179 59.459 453.509 59.589 453.821 59.797C454.185 60.0397 454.453 60.3517 454.627 60.733C454.809 61.1143 454.9 61.5043 454.9 61.903C454.9 62.033 454.887 62.176 454.861 62.332C454.843 62.488 454.804 62.6483 454.744 62.813C454.683 62.9777 454.596 63.1467 454.484 63.32C454.38 63.4847 454.237 63.645 454.055 63.801C453.708 64.0957 453.348 64.282 452.976 64.36C452.603 64.438 452.256 64.477 451.936 64.477H451.338V68H450.012V59.329H451.923ZM451.338 63.255H451.936C452.508 63.255 452.932 63.1293 453.21 62.878C453.487 62.6267 453.626 62.2973 453.626 61.89C453.626 61.7687 453.608 61.63 453.574 61.474C453.539 61.318 453.461 61.175 453.34 61.045C453.218 60.9063 453.045 60.7893 452.82 60.694C452.594 60.5987 452.295 60.551 451.923 60.551H451.338V63.255ZM460.093 59.173C460.743 59.173 461.341 59.29 461.887 59.524C462.441 59.7493 462.918 60.0657 463.317 60.473C463.724 60.8717 464.04 61.3483 464.266 61.903C464.491 62.449 464.604 63.0383 464.604 63.671C464.604 64.3123 464.491 64.906 464.266 65.452C464.04 65.998 463.724 66.4747 463.317 66.882C462.918 67.2807 462.441 67.597 461.887 67.831C461.341 68.0563 460.743 68.169 460.093 68.169C459.443 68.169 458.84 68.0563 458.286 67.831C457.74 67.597 457.263 67.2807 456.856 66.882C456.457 66.4747 456.145 65.998 455.92 65.452C455.694 64.906 455.582 64.3123 455.582 63.671C455.582 63.0383 455.694 62.449 455.92 61.903C456.145 61.3483 456.457 60.8717 456.856 60.473C457.263 60.0657 457.74 59.7493 458.286 59.524C458.84 59.29 459.443 59.173 460.093 59.173ZM460.093 66.947C460.561 66.947 460.99 66.869 461.38 66.713C461.77 66.5483 462.103 66.323 462.381 66.037C462.667 65.7423 462.888 65.3957 463.044 64.997C463.2 64.5983 463.278 64.1563 463.278 63.671C463.278 63.1943 463.2 62.7567 463.044 62.358C462.888 61.9507 462.667 61.604 462.381 61.318C462.103 61.0233 461.77 60.798 461.38 60.642C460.99 60.4773 460.561 60.395 460.093 60.395C459.625 60.395 459.196 60.4773 458.806 60.642C458.416 60.798 458.078 61.0233 457.792 61.318C457.514 61.604 457.298 61.9507 457.142 62.358C456.986 62.7567 456.908 63.1943 456.908 63.671C456.908 64.1563 456.986 64.5983 457.142 64.997C457.298 65.3957 457.514 65.7423 457.792 66.037C458.078 66.323 458.416 66.5483 458.806 66.713C459.196 66.869 459.625 66.947 460.093 66.947ZM467.321 59.329C467.884 59.329 468.352 59.3767 468.725 59.472C469.098 59.5587 469.427 59.7363 469.713 60.005C470.172 60.4383 470.402 61.0103 470.402 61.721C470.402 61.8943 470.385 62.0677 470.35 62.241C470.315 62.4057 470.246 62.5747 470.142 62.748C470.047 62.9213 469.938 63.0557 469.817 63.151C469.696 63.2377 469.587 63.3027 469.492 63.346C469.57 63.3633 469.722 63.4153 469.947 63.502C470.172 63.5887 470.393 63.7447 470.61 63.97C470.844 64.2213 470.996 64.49 471.065 64.776C471.143 65.0533 471.182 65.3263 471.182 65.595C471.182 65.907 471.139 66.1887 471.052 66.44C470.965 66.6913 470.818 66.9297 470.61 67.155C470.437 67.337 470.242 67.4843 470.025 67.597C469.817 67.7097 469.6 67.7963 469.375 67.857C469.158 67.909 468.946 67.948 468.738 67.974C468.53 67.9913 468.344 68 468.179 68H466.008V59.329H467.321ZM467.334 63.06H467.737C467.902 63.06 468.084 63.0427 468.283 63.008C468.482 62.9647 468.66 62.8693 468.816 62.722C468.963 62.5747 469.054 62.41 469.089 62.228C469.132 62.046 469.154 61.8813 469.154 61.734C469.154 61.604 469.137 61.4653 469.102 61.318C469.067 61.1707 468.981 61.032 468.842 60.902C468.695 60.7547 468.53 60.6637 468.348 60.629C468.166 60.5943 467.98 60.577 467.789 60.577H467.334V63.06ZM467.334 66.752H468.14C468.331 66.752 468.552 66.7303 468.803 66.687C469.063 66.6437 469.28 66.5527 469.453 66.414C469.583 66.31 469.687 66.1757 469.765 66.011C469.843 65.8377 469.882 65.6513 469.882 65.452C469.882 65.0793 469.765 64.776 469.531 64.542C469.349 64.3687 469.132 64.2603 468.881 64.217C468.638 64.1737 468.4 64.152 468.166 64.152H467.334V66.752ZM477.281 65.907H473.576L472.627 68H471.197L475.513 58.822L479.621 68H478.191L477.281 65.907ZM476.748 64.659L475.461 61.721L474.122 64.659H476.748ZM481.782 62.657H485.5V59.329H486.826V68H485.5V63.905H481.782V68H480.456V59.329H481.782V62.657ZM494.501 62.163L488.651 68.39V59.329H489.977V65.192L495.827 58.965V68H494.501V62.163ZM502.43 60.577H498.972V62.774H502.326V64.022H498.972V66.752H502.43V68H497.646V59.329H502.43V60.577Z" fill="white"/>
<path d="M559.366 88.657H563.084V85.329H564.41V94H563.084V89.905H559.366V94H558.04V85.329H559.366V88.657ZM571.331 91.907H567.626L566.677 94H565.247L569.563 84.822L573.671 94H572.241L571.331 91.907ZM570.798 90.659L569.511 87.721L568.172 90.659H570.798ZM580.876 85.329V94H579.55V86.577H575.832V94H574.506V85.329H580.876ZM586.796 85.173C587.446 85.173 588.044 85.29 588.59 85.524C589.145 85.7493 589.622 86.0657 590.02 86.473C590.428 86.8717 590.744 87.3483 590.969 87.903C591.195 88.449 591.307 89.0383 591.307 89.671C591.307 90.3123 591.195 90.906 590.969 91.452C590.744 91.998 590.428 92.4747 590.02 92.882C589.622 93.2807 589.145 93.597 588.59 93.831C588.044 94.0563 587.446 94.169 586.796 94.169C586.146 94.169 585.544 94.0563 584.989 93.831C584.443 93.597 583.967 93.2807 583.559 92.882C583.161 92.4747 582.849 91.998 582.623 91.452C582.398 90.906 582.285 90.3123 582.285 89.671C582.285 89.0383 582.398 88.449 582.623 87.903C582.849 87.3483 583.161 86.8717 583.559 86.473C583.967 86.0657 584.443 85.7493 584.989 85.524C585.544 85.29 586.146 85.173 586.796 85.173ZM586.796 92.947C587.264 92.947 587.693 92.869 588.083 92.713C588.473 92.5483 588.807 92.323 589.084 92.037C589.37 91.7423 589.591 91.3957 589.747 90.997C589.903 90.5983 589.981 90.1563 589.981 89.671C589.981 89.1943 589.903 88.7567 589.747 88.358C589.591 87.9507 589.37 87.604 589.084 87.318C588.807 87.0233 588.473 86.798 588.083 86.642C587.693 86.4773 587.264 86.395 586.796 86.395C586.328 86.395 585.899 86.4773 585.509 86.642C585.119 86.798 584.781 87.0233 584.495 87.318C584.218 87.604 584.001 87.9507 583.845 88.358C583.689 88.7567 583.611 89.1943 583.611 89.671C583.611 90.1563 583.689 90.5983 583.845 90.997C584.001 91.3957 584.218 91.7423 584.495 92.037C584.781 92.323 585.119 92.5483 585.509 92.713C585.899 92.869 586.328 92.947 586.796 92.947ZM599.082 85.329V94H597.756V86.577H594.87V90.893C594.87 91.1443 594.861 91.3913 594.844 91.634C594.835 91.8767 594.801 92.115 594.74 92.349C594.688 92.5743 594.606 92.791 594.493 92.999C594.38 93.207 594.22 93.3933 594.012 93.558C593.787 93.74 593.535 93.8743 593.258 93.961C592.989 94.039 592.716 94.078 592.439 94.078C592.318 94.078 592.209 94.0693 592.114 94.052C592.019 94.0347 591.932 94.0173 591.854 94V92.778C591.923 92.7953 591.997 92.8127 592.075 92.83C592.153 92.8473 592.24 92.856 592.335 92.856C592.508 92.856 592.66 92.83 592.79 92.778C592.92 92.7173 593.028 92.6437 593.115 92.557C593.228 92.453 593.31 92.323 593.362 92.167C593.423 92.0023 593.466 91.829 593.492 91.647C593.518 91.465 593.531 91.2787 593.531 91.088C593.54 90.8887 593.544 90.6937 593.544 90.503V85.329H599.082ZM602.233 88.657H605.951V85.329H607.277V94H605.951V89.905H602.233V94H600.907V85.329H602.233V88.657ZM613.886 86.577H610.428V88.774H613.782V90.022H610.428V92.752H613.886V94H609.102V85.329H613.886V86.577ZM616.668 88.657H620.386V85.329H621.712V94H620.386V89.905H616.668V94H615.342V85.329H616.668V88.657ZM629.387 88.163L623.537 94.39V85.329H624.863V91.192L630.713 84.965V94H629.387V88.163ZM637.316 86.577H633.858V88.774H637.212V90.022H633.858V92.752H637.316V94H632.532V85.329H637.316V86.577Z" fill="white"/>
<path d="M738.91 112.447C739.127 112.161 739.343 111.944 739.56 111.797C739.777 111.65 739.933 111.554 740.028 111.511C740.288 111.381 740.548 111.294 740.808 111.251C741.068 111.208 741.332 111.186 741.601 111.186C741.913 111.186 742.247 111.229 742.602 111.316C742.966 111.394 743.304 111.58 743.616 111.875C744.032 112.282 744.24 112.789 744.24 113.396C744.24 113.595 744.218 113.782 744.175 113.955C744.14 114.128 744.067 114.302 743.954 114.475C743.841 114.666 743.716 114.822 743.577 114.943C743.447 115.056 743.313 115.151 743.174 115.229C743.451 115.298 743.685 115.407 743.876 115.554C744.067 115.693 744.223 115.84 744.344 115.996C744.517 116.213 744.634 116.442 744.695 116.685C744.756 116.928 744.786 117.188 744.786 117.465C744.786 117.829 744.717 118.176 744.578 118.505C744.448 118.826 744.227 119.125 743.915 119.402C743.551 119.714 743.157 119.918 742.732 120.013C742.316 120.108 741.93 120.156 741.575 120.156C741.185 120.156 740.817 120.108 740.47 120.013C740.132 119.918 739.79 119.74 739.443 119.48C739.235 119.315 739.036 119.116 738.845 118.882C738.654 118.648 738.485 118.379 738.338 118.076L739.508 117.478C739.612 117.755 739.738 117.976 739.885 118.141C740.041 118.306 740.184 118.436 740.314 118.531C740.539 118.687 740.769 118.795 741.003 118.856C741.237 118.908 741.484 118.934 741.744 118.934C741.909 118.934 742.117 118.908 742.368 118.856C742.628 118.804 742.862 118.674 743.07 118.466C743.191 118.345 743.291 118.193 743.369 118.011C743.447 117.829 743.486 117.625 743.486 117.4C743.486 117.183 743.447 116.993 743.369 116.828C743.291 116.655 743.161 116.507 742.979 116.386C742.858 116.299 742.728 116.234 742.589 116.191C742.45 116.148 742.312 116.117 742.173 116.1C742.034 116.074 741.9 116.061 741.77 116.061C741.64 116.052 741.519 116.048 741.406 116.048H740.626V114.8H741.328C741.519 114.8 741.735 114.774 741.978 114.722C742.221 114.67 742.42 114.579 742.576 114.449C742.689 114.354 742.78 114.232 742.849 114.085C742.927 113.929 742.966 113.756 742.966 113.565C742.966 113.348 742.923 113.166 742.836 113.019C742.758 112.872 742.663 112.755 742.55 112.668C742.403 112.547 742.238 112.473 742.056 112.447C741.874 112.421 741.705 112.408 741.549 112.408C741.35 112.408 741.168 112.425 741.003 112.46C740.838 112.495 740.669 112.56 740.496 112.655C740.297 112.768 740.136 112.889 740.015 113.019C739.902 113.149 739.824 113.24 739.781 113.292L738.91 112.447ZM751.011 117.907H747.306L746.357 120H744.927L749.243 110.822L753.351 120H751.921L751.011 117.907ZM750.478 116.659L749.191 113.721L747.852 116.659H750.478ZM760.556 111.329V120H759.23V112.577H755.512V120H754.186V111.329H760.556ZM763.031 111.329L765.267 115.957L767.295 111.329H768.673L764.76 120H763.382L764.5 117.543L761.419 111.329H763.031ZM775.551 113.357C775.308 113.14 775.07 112.967 774.836 112.837C774.611 112.707 774.398 112.612 774.199 112.551C774 112.482 773.813 112.438 773.64 112.421C773.467 112.404 773.319 112.395 773.198 112.395C772.73 112.395 772.301 112.477 771.911 112.642C771.521 112.807 771.187 113.036 770.91 113.331C770.633 113.626 770.416 113.977 770.26 114.384C770.113 114.783 770.039 115.22 770.039 115.697C770.039 116.156 770.117 116.585 770.273 116.984C770.429 117.374 770.646 117.716 770.923 118.011C771.209 118.306 771.547 118.535 771.937 118.7C772.327 118.865 772.752 118.947 773.211 118.947C773.471 118.947 773.714 118.917 773.939 118.856C774.173 118.795 774.385 118.717 774.576 118.622C774.775 118.527 774.957 118.423 775.122 118.31C775.287 118.189 775.43 118.067 775.551 117.946V119.519C775.109 119.779 774.676 119.952 774.251 120.039C773.835 120.126 773.475 120.169 773.172 120.169C772.782 120.169 772.422 120.13 772.093 120.052C771.772 119.974 771.486 119.874 771.235 119.753C770.984 119.632 770.763 119.502 770.572 119.363C770.39 119.224 770.234 119.094 770.104 118.973C769.593 118.496 769.233 117.985 769.025 117.439C768.817 116.893 768.713 116.312 768.713 115.697C768.713 115.298 768.752 114.93 768.83 114.592C768.908 114.254 769.008 113.946 769.129 113.669C769.259 113.383 769.406 113.127 769.571 112.902C769.744 112.677 769.922 112.477 770.104 112.304C770.555 111.879 771.04 111.585 771.56 111.42C772.08 111.255 772.639 111.173 773.237 111.173C773.636 111.173 774.026 111.216 774.407 111.303C774.788 111.39 775.17 111.554 775.551 111.797V113.357ZM778.256 114.787L781.61 111.329H783.352L779.439 115.255L783.378 120H781.61L778.516 116.152L778.256 116.412V120H776.93V111.329H778.256V114.787Z" fill="white"/>
<path opacity="0.4" d="M928.04 111.329H932.382V112.577H929.366V120H928.04V111.329ZM936.902 111.173C937.552 111.173 938.15 111.29 938.696 111.524C939.251 111.749 939.728 112.066 940.126 112.473C940.534 112.872 940.85 113.348 941.075 113.903C941.301 114.449 941.413 115.038 941.413 115.671C941.413 116.312 941.301 116.906 941.075 117.452C940.85 117.998 940.534 118.475 940.126 118.882C939.728 119.281 939.251 119.597 938.696 119.831C938.15 120.056 937.552 120.169 936.902 120.169C936.252 120.169 935.65 120.056 935.095 119.831C934.549 119.597 934.073 119.281 933.665 118.882C933.267 118.475 932.955 117.998 932.729 117.452C932.504 116.906 932.391 116.312 932.391 115.671C932.391 115.038 932.504 114.449 932.729 113.903C932.955 113.348 933.267 112.872 933.665 112.473C934.073 112.066 934.549 111.749 935.095 111.524C935.65 111.29 936.252 111.173 936.902 111.173ZM936.902 118.947C937.37 118.947 937.799 118.869 938.189 118.713C938.579 118.548 938.913 118.323 939.19 118.037C939.476 117.742 939.697 117.396 939.853 116.997C940.009 116.598 940.087 116.156 940.087 115.671C940.087 115.194 940.009 114.757 939.853 114.358C939.697 113.951 939.476 113.604 939.19 113.318C938.913 113.023 938.579 112.798 938.189 112.642C937.799 112.477 937.37 112.395 936.902 112.395C936.434 112.395 936.005 112.477 935.615 112.642C935.225 112.798 934.887 113.023 934.601 113.318C934.324 113.604 934.107 113.951 933.951 114.358C933.795 114.757 933.717 115.194 933.717 115.671C933.717 116.156 933.795 116.598 933.951 116.997C934.107 117.396 934.324 117.742 934.601 118.037C934.887 118.323 935.225 118.548 935.615 118.713C936.005 118.869 936.434 118.947 936.902 118.947ZM944.969 112.577V120H943.643V112.577H941.654V111.329H946.958V112.577H944.969ZM951.706 111.173C952.356 111.173 952.954 111.29 953.5 111.524C954.054 111.749 954.531 112.066 954.93 112.473C955.337 112.872 955.653 113.348 955.879 113.903C956.104 114.449 956.217 115.038 956.217 115.671C956.217 116.312 956.104 116.906 955.879 117.452C955.653 117.998 955.337 118.475 954.93 118.882C954.531 119.281 954.054 119.597 953.5 119.831C952.954 120.056 952.356 120.169 951.706 120.169C951.056 120.169 950.453 120.056 949.899 119.831C949.353 119.597 948.876 119.281 948.469 118.882C948.07 118.475 947.758 117.998 947.533 117.452C947.307 116.906 947.195 116.312 947.195 115.671C947.195 115.038 947.307 114.449 947.533 113.903C947.758 113.348 948.07 112.872 948.469 112.473C948.876 112.066 949.353 111.749 949.899 111.524C950.453 111.29 951.056 111.173 951.706 111.173ZM951.706 118.947C952.174 118.947 952.603 118.869 952.993 118.713C953.383 118.548 953.716 118.323 953.994 118.037C954.28 117.742 954.501 117.396 954.657 116.997C954.813 116.598 954.891 116.156 954.891 115.671C954.891 115.194 954.813 114.757 954.657 114.358C954.501 113.951 954.28 113.604 953.994 113.318C953.716 113.023 953.383 112.798 952.993 112.642C952.603 112.477 952.174 112.395 951.706 112.395C951.238 112.395 950.809 112.477 950.419 112.642C950.029 112.798 949.691 113.023 949.405 113.318C949.127 113.604 948.911 113.951 948.755 114.358C948.599 114.757 948.521 115.194 948.521 115.671C948.521 116.156 948.599 116.598 948.755 116.997C948.911 117.396 949.127 117.742 949.405 118.037C949.691 118.323 950.029 118.548 950.419 118.713C950.809 118.869 951.238 118.947 951.706 118.947ZM958.934 111.329C959.497 111.329 959.965 111.377 960.338 111.472C960.711 111.559 961.04 111.736 961.326 112.005C961.785 112.438 962.015 113.01 962.015 113.721C962.015 113.894 961.998 114.068 961.963 114.241C961.928 114.406 961.859 114.575 961.755 114.748C961.66 114.921 961.551 115.056 961.43 115.151C961.309 115.238 961.2 115.303 961.105 115.346C961.183 115.363 961.335 115.415 961.56 115.502C961.785 115.589 962.006 115.745 962.223 115.97C962.457 116.221 962.609 116.49 962.678 116.776C962.756 117.053 962.795 117.326 962.795 117.595C962.795 117.907 962.752 118.189 962.665 118.44C962.578 118.691 962.431 118.93 962.223 119.155C962.05 119.337 961.855 119.484 961.638 119.597C961.43 119.71 961.213 119.796 960.988 119.857C960.771 119.909 960.559 119.948 960.351 119.974C960.143 119.991 959.957 120 959.792 120H957.621V111.329H958.934ZM958.947 115.06H959.35C959.515 115.06 959.697 115.043 959.896 115.008C960.095 114.965 960.273 114.869 960.429 114.722C960.576 114.575 960.667 114.41 960.702 114.228C960.745 114.046 960.767 113.881 960.767 113.734C960.767 113.604 960.75 113.465 960.715 113.318C960.68 113.171 960.594 113.032 960.455 112.902C960.308 112.755 960.143 112.664 959.961 112.629C959.779 112.594 959.593 112.577 959.402 112.577H958.947V115.06ZM958.947 118.752H959.753C959.944 118.752 960.165 118.73 960.416 118.687C960.676 118.644 960.893 118.553 961.066 118.414C961.196 118.31 961.3 118.176 961.378 118.011C961.456 117.838 961.495 117.651 961.495 117.452C961.495 117.079 961.378 116.776 961.144 116.542C960.962 116.369 960.745 116.26 960.494 116.217C960.251 116.174 960.013 116.152 959.779 116.152H958.947V118.752ZM968.299 111.173C968.949 111.173 969.547 111.29 970.093 111.524C970.648 111.749 971.124 112.066 971.523 112.473C971.93 112.872 972.247 113.348 972.472 113.903C972.697 114.449 972.81 115.038 972.81 115.671C972.81 116.312 972.697 116.906 972.472 117.452C972.247 117.998 971.93 118.475 971.523 118.882C971.124 119.281 970.648 119.597 970.093 119.831C969.547 120.056 968.949 120.169 968.299 120.169C967.649 120.169 967.047 120.056 966.492 119.831C965.946 119.597 965.469 119.281 965.062 118.882C964.663 118.475 964.351 117.998 964.126 117.452C963.901 116.906 963.788 116.312 963.788 115.671C963.788 115.038 963.901 114.449 964.126 113.903C964.351 113.348 964.663 112.872 965.062 112.473C965.469 112.066 965.946 111.749 966.492 111.524C967.047 111.29 967.649 111.173 968.299 111.173ZM968.299 118.947C968.767 118.947 969.196 118.869 969.586 118.713C969.976 118.548 970.31 118.323 970.587 118.037C970.873 117.742 971.094 117.396 971.25 116.997C971.406 116.598 971.484 116.156 971.484 115.671C971.484 115.194 971.406 114.757 971.25 114.358C971.094 113.951 970.873 113.604 970.587 113.318C970.31 113.023 969.976 112.798 969.586 112.642C969.196 112.477 968.767 112.395 968.299 112.395C967.831 112.395 967.402 112.477 967.012 112.642C966.622 112.798 966.284 113.023 965.998 113.318C965.721 113.604 965.504 113.951 965.348 114.358C965.192 114.757 965.114 115.194 965.114 115.671C965.114 116.156 965.192 116.598 965.348 116.997C965.504 117.396 965.721 117.742 965.998 118.037C966.284 118.323 966.622 118.548 967.012 118.713C967.402 118.869 967.831 118.947 968.299 118.947Z" fill="white"/>
<path d="M19.28 7.329V14.752H20.268V17.95H19.02V16H13.43V17.95H12.182V14.752C12.338 14.7607 12.4853 14.7347 12.624 14.674C12.7627 14.6133 12.8883 14.531 13.001 14.427C13.1223 14.3143 13.2263 14.1887 13.313 14.05C13.4083 13.9027 13.4907 13.7467 13.56 13.582C13.6467 13.3653 13.7203 13.0837 13.781 12.737C13.8417 12.3817 13.872 11.905 13.872 11.307V7.329H19.28ZM15.198 11.307C15.198 11.9743 15.1677 12.4943 15.107 12.867C15.0463 13.231 14.977 13.517 14.899 13.725C14.8037 13.9677 14.6953 14.1713 14.574 14.336C14.4613 14.492 14.3443 14.6307 14.223 14.752H17.954V8.577H15.198V11.307ZM27.0851 10.163L21.2351 16.39V7.329H22.5611V13.192L28.4111 6.965V16H27.0851V10.163ZM30.1 8.447C30.3166 8.161 30.5333 7.94433 30.75 7.797C30.9666 7.64967 31.1226 7.55433 31.218 7.511C31.478 7.381 31.738 7.29433 31.998 7.251C32.258 7.20767 32.5223 7.186 32.791 7.186C33.103 7.186 33.4366 7.22933 33.792 7.316C34.156 7.394 34.494 7.58033 34.806 7.875C35.222 8.28233 35.43 8.78933 35.43 9.396C35.43 9.59533 35.4083 9.78167 35.365 9.955C35.3303 10.1283 35.2566 10.3017 35.144 10.475C35.0313 10.6657 34.9056 10.8217 34.767 10.943C34.637 11.0557 34.5026 11.151 34.364 11.229C34.6413 11.2983 34.8753 11.4067 35.066 11.554C35.2566 11.6927 35.4126 11.84 35.534 11.996C35.7073 12.2127 35.8243 12.4423 35.885 12.685C35.9456 12.9277 35.976 13.1877 35.976 13.465C35.976 13.829 35.9066 14.1757 35.768 14.505C35.638 14.8257 35.417 15.1247 35.105 15.402C34.741 15.714 34.3466 15.9177 33.922 16.013C33.506 16.1083 33.1203 16.156 32.765 16.156C32.375 16.156 32.0066 16.1083 31.66 16.013C31.322 15.9177 30.9796 15.74 30.633 15.48C30.425 15.3153 30.2256 15.116 30.035 14.882C29.8443 14.648 29.6753 14.3793 29.528 14.076L30.698 13.478C30.802 13.7553 30.9276 13.9763 31.075 14.141C31.231 14.3057 31.374 14.4357 31.504 14.531C31.7293 14.687 31.959 14.7953 32.193 14.856C32.427 14.908 32.674 14.934 32.934 14.934C33.0986 14.934 33.3066 14.908 33.558 14.856C33.818 14.804 34.052 14.674 34.26 14.466C34.3813 14.3447 34.481 14.193 34.559 14.011C34.637 13.829 34.676 13.6253 34.676 13.4C34.676 13.1833 34.637 12.9927 34.559 12.828C34.481 12.6547 34.351 12.5073 34.169 12.386C34.0476 12.2993 33.9176 12.2343 33.779 12.191C33.6403 12.1477 33.5016 12.1173 33.363 12.1C33.2243 12.074 33.09 12.061 32.96 12.061C32.83 12.0523 32.7086 12.048 32.596 12.048H31.816V10.8H32.518C32.7086 10.8 32.9253 10.774 33.168 10.722C33.4106 10.67 33.61 10.579 33.766 10.449C33.8786 10.3537 33.9696 10.2323 34.039 10.085C34.117 9.929 34.156 9.75567 34.156 9.565C34.156 9.34833 34.1126 9.16633 34.026 9.019C33.948 8.87167 33.8526 8.75467 33.74 8.668C33.5926 8.54667 33.428 8.473 33.246 8.447C33.064 8.421 32.895 8.408 32.739 8.408C32.5396 8.408 32.3576 8.42533 32.193 8.46C32.0283 8.49467 31.8593 8.55967 31.686 8.655C31.4866 8.76767 31.3263 8.889 31.205 9.019C31.0923 9.149 31.0143 9.24 30.971 9.292L30.1 8.447ZM42.2007 13.907H38.4957L37.5467 16H36.1167L40.4327 6.822L44.5407 16H43.1107L42.2007 13.907ZM41.6677 12.659L40.3807 9.721L39.0417 12.659H41.6677ZM51.226 10.163L45.376 16.39V7.329H46.702V13.192L52.552 6.965V16H51.226V10.163ZM47.859 4.716C47.911 4.898 47.9933 5.03667 48.106 5.132C48.2186 5.22733 48.3313 5.301 48.444 5.353C48.5653 5.39633 48.6736 5.42233 48.769 5.431C48.873 5.43967 48.938 5.444 48.964 5.444C48.99 5.444 49.0506 5.43967 49.146 5.431C49.25 5.42233 49.3583 5.39633 49.471 5.353C49.5923 5.301 49.7093 5.22733 49.822 5.132C49.9346 5.03667 50.017 4.898 50.069 4.716L51.109 5.184C50.9963 5.45267 50.8533 5.67367 50.68 5.847C50.5066 6.02033 50.3203 6.15467 50.121 6.25C49.9216 6.34533 49.718 6.41467 49.51 6.458C49.3106 6.49267 49.1286 6.51 48.964 6.51C48.7906 6.51 48.6043 6.49267 48.405 6.458C48.2056 6.41467 48.0063 6.34533 47.807 6.25C47.6076 6.15467 47.4213 6.02033 47.248 5.847C47.0746 5.67367 46.9316 5.45267 46.819 5.184L47.859 4.716ZM55.6969 10.657H59.4149V7.329H60.7409V16H59.4149V11.905H55.6969V16H54.3709V7.329H55.6969V10.657Z" fill="white"/>
</svg>
